<svg id="Layer_1" data-name="Layer 1" xmlns="http://www.w3.org/2000/svg" viewBox="0 0 129.23 180.34"><title>icon2</title><path d="M98.51,84.16c77.88-47.5-27.31-116.92-76.63-51.7-7.91,11.95-11.66,30.24-8,56.7,2.56,10.74,8.88,22.93,20,35.77-19,54.62,22.21,82,68.65,42.79C143.17,133.05,166.78,73.87,98.51,84.16Zm-72.75,11c-2.31-9-2.81-16.86-1.9-23.72,11-79.57,113.46-43.42,71.38,4.8C89.81,81.73,79.85,87.48,63.89,93a330.2,330.2,0,0,1,10-38.46c7.5-32.41-18.57-18.16-19.62-2.69-2.08,15.46-8,20.81-15.57,21.73.24,5.11,3.51,7.41,11,5.77l1.92,17.11c-11.06,6.73-6.49,12.4,1.11,10.29l.05,1.44c-5.31-.38-9.27,3.75-13.51,9.23C31.44,108.63,27.77,101.6,25.76,95.14Zm29.48,35a17,17,0,0,1-3.75-2.83,16.83,16.83,0,0,0,2.74-4A35.78,35.78,0,0,0,55.24,130.17Zm47.88,21.4c-43.85,40.09-74,12.59-56.54-16.66A264.88,264.88,0,0,0,73.41,153c9.52,4.54,11.61-3.53,2.38-8.22C64.2,133.84,62.9,119.25,63.53,104,113.22,73.9,160.3,99.26,103.12,151.57Z" transform="translate(-12.46 -5.87)"/></svg>